<svg xmlns="http://www.w3.org/2000/svg" viewBox="0 0 480 400" width="480" height="400">
  <defs>
    <linearGradient id="cBg" x1="0%" y1="0%" x2="100%" y2="100%">
      <stop offset="0%" style="stop-color:#fff3ee"/>
      <stop offset="100%" style="stop-color:#f8f4ff"/>
    </linearGradient>
  </defs>
  <rect x="20" y="20" width="440" height="360" rx="20" fill="url(#cBg)"/>

  <!-- Map pin / location -->
  <circle cx="240" cy="140" r="70" fill="#ffffff" filter="drop-shadow(0 4px 24px rgba(0,0,0,0.08))"/>
  <circle cx="240" cy="140" r="50" fill="#fff3ee"/>
  <!-- Pin icon -->
  <path d="M240 100 C220 100 205 115 205 133 C205 155 240 185 240 185 C240 185 275 155 275 133 C275 115 260 100 240 100Z" fill="#ff5d22"/>
  <circle cx="240" cy="133" r="12" fill="#ffffff"/>

  <!-- Message bubbles -->
  <rect x="40" y="60" width="140" height="70" rx="14" fill="#221638" filter="drop-shadow(0 4px 12px rgba(34,22,56,0.2))"/>
  <polygon points="60,130 80,130 70,148" fill="#221638"/>
  <line x1="56" y1="85" x2="164" y2="85" stroke="#ffffff" stroke-width="2" stroke-linecap="round" opacity="0.5"/>
  <line x1="56" y1="98" x2="148" y2="98" stroke="#ffffff" stroke-width="2" stroke-linecap="round" opacity="0.5"/>
  <line x1="56" y1="111" x2="140" y2="111" stroke="#ff5d22" stroke-width="2" stroke-linecap="round"/>

  <rect x="300" y="50" width="140" height="70" rx="14" fill="#ff5d22" filter="drop-shadow(0 4px 12px rgba(255,93,34,0.3))"/>
  <polygon points="400,120 420,120 410,138" fill="#ff5d22"/>
  <line x1="316" y1="75" x2="424" y2="75" stroke="#ffffff" stroke-width="2" stroke-linecap="round" opacity="0.7"/>
  <line x1="316" y1="88" x2="408" y2="88" stroke="#ffffff" stroke-width="2" stroke-linecap="round" opacity="0.7"/>
  <line x1="316" y1="101" x2="400" y2="101" stroke="#ffffff" stroke-width="2" stroke-linecap="round" opacity="0.5"/>

  <!-- Contact info cards -->
  <rect x="40" y="270" width="120" height="80" rx="12" fill="#ffffff" filter="drop-shadow(0 2px 8px rgba(0,0,0,0.08))"/>
  <circle cx="70" cy="295" r="14" fill="#fff3ee"/>
  <text x="63" y="300" font-family="Arial" font-size="14">📍</text>
  <text x="52" y="322" font-family="Nunito, Arial, sans-serif" font-weight="700" font-size="9" fill="#221638">Cape Town</text>
  <text x="52" y="335" font-family="Nunito, Arial, sans-serif" font-size="8" fill="#6b6b84">South Africa</text>

  <rect x="180" y="270" width="120" height="80" rx="12" fill="#ffffff" filter="drop-shadow(0 2px 8px rgba(0,0,0,0.08))"/>
  <circle cx="210" cy="295" r="14" fill="#fff3ee"/>
  <text x="203" y="300" font-family="Arial" font-size="14">📞</text>
  <text x="192" y="322" font-family="Nunito, Arial, sans-serif" font-weight="700" font-size="9" fill="#221638">+27 66 400</text>
  <text x="192" y="335" font-family="Nunito, Arial, sans-serif" font-size="8" fill="#6b6b84">8274</text>

  <rect x="320" y="270" width="120" height="80" rx="12" fill="#ffffff" filter="drop-shadow(0 2px 8px rgba(0,0,0,0.08))"/>
  <circle cx="350" cy="295" r="14" fill="#fff3ee"/>
  <text x="343" y="300" font-family="Arial" font-size="14">✉️</text>
  <text x="332" y="322" font-family="Nunito, Arial, sans-serif" font-weight="700" font-size="9" fill="#221638">info@zendata</text>
  <text x="332" y="335" font-family="Nunito, Arial, sans-serif" font-size="8" fill="#6b6b84">-avenue.co.za</text>
</svg>
