<svg xmlns="http://www.w3.org/2000/svg" viewBox="0 0 300 340" width="300" height="340">
  <!-- Background -->
  <rect x="0" y="0" width="300" height="340" rx="16" fill="#f8f4ff"/>
  <!-- Card background -->
  <rect x="10" y="10" width="280" height="320" rx="14" fill="#ffffff"/>
  <!-- Top colour band -->
  <rect x="10" y="10" width="280" height="120" rx="14" fill="#221638"/>
  <rect x="10" y="100" width="280" height="30" fill="#221638"/>
  <!-- Decorative circuit on band -->
  <line x1="30" y1="40" x2="80" y2="40" stroke="#ff5d22" stroke-width="1" opacity="0.3"/>
  <line x1="80" y1="40" x2="80" y2="70" stroke="#ff5d22" stroke-width="1" opacity="0.3"/>
  <circle cx="80" cy="40" r="2.5" fill="#ff5d22" opacity="0.5"/>
  <line x1="220" y1="60" x2="270" y2="60" stroke="#ff5d22" stroke-width="1" opacity="0.3"/>
  <circle cx="220" cy="60" r="2.5" fill="#ff5d22" opacity="0.5"/>
  <!-- Avatar circle -->
  <circle cx="150" cy="115" r="52" fill="#ffffff"/>
  <circle cx="150" cy="115" r="48" fill="#ff5d22"/>
  <!-- Person silhouette: Mkhululi -->
  <circle cx="150" cy="100" r="22" fill="#221638"/>
  <path d="M108 155 Q108 130 150 130 Q192 130 192 155" fill="#221638"/>
  <!-- Initials fallback -->
  <text x="150" y="108" font-family="Nunito, Arial, sans-serif" font-weight="800" font-size="22" fill="#ffffff" text-anchor="middle">MB</text>
  <!-- Name & title -->
  <text x="150" y="195" font-family="Nunito, Arial, sans-serif" font-weight="800" font-size="16" fill="#221638" text-anchor="middle">Mkhululi Buzwa</text>
  <text x="150" y="215" font-family="Nunito, Arial, sans-serif" font-size="11" fill="#ff5d22" text-anchor="middle">Principal Developer &amp; Co-Founder</text>
  <!-- Divider -->
  <line x1="60" y1="232" x2="240" y2="232" stroke="#f0f0f0" stroke-width="1.5"/>
  <!-- Skills tags -->
  <rect x="50" y="245" width="70" height="22" rx="11" fill="#fff3ee"/>
  <text x="85" y="260" font-family="Nunito, Arial, sans-serif" font-size="9" fill="#ff5d22" text-anchor="middle" font-weight="700">Angular</text>
  <rect x="130" y="245" width="60" height="22" rx="11" fill="#fff3ee"/>
  <text x="160" y="260" font-family="Nunito, Arial, sans-serif" font-size="9" fill="#ff5d22" text-anchor="middle" font-weight="700">Python</text>
  <rect x="200" y="245" width="55" height="22" rx="11" fill="#fff3ee"/>
  <text x="227" y="260" font-family="Nunito, Arial, sans-serif" font-size="9" fill="#ff5d22" text-anchor="middle" font-weight="700">Cloud</text>
  <!-- Location -->
  <text x="150" y="295" font-family="Nunito, Arial, sans-serif" font-size="10" fill="#6b6b84" text-anchor="middle">📍 Cape Town, South Africa</text>
</svg>
