<svg xmlns="http://www.w3.org/2000/svg" viewBox="0 0 300 340" width="300" height="340">
  <rect x="0" y="0" width="300" height="340" rx="16" fill="#f8f4ff"/>
  <rect x="10" y="10" width="280" height="320" rx="14" fill="#ffffff"/>
  <rect x="10" y="10" width="280" height="120" rx="14" fill="#221638"/>
  <rect x="10" y="100" width="280" height="30" fill="#221638"/>
  <!-- Decorative circuit -->
  <line x1="30" y1="50" x2="90" y2="50" stroke="#ff5d22" stroke-width="1" opacity="0.3"/>
  <circle cx="90" cy="50" r="2.5" fill="#ff5d22" opacity="0.5"/>
  <line x1="210" y1="40" x2="270" y2="40" stroke="#ff5d22" stroke-width="1" opacity="0.3"/>
  <line x1="210" y1="40" x2="210" y2="70" stroke="#ff5d22" stroke-width="1" opacity="0.3"/>
  <circle cx="210" cy="70" r="2.5" fill="#ff5d22" opacity="0.5"/>
  <!-- Avatar -->
  <circle cx="150" cy="115" r="52" fill="#ffffff"/>
  <circle cx="150" cy="115" r="48" fill="#221638"/>
  <text x="150" y="108" font-family="Nunito, Arial, sans-serif" font-weight="800" font-size="22" fill="#ff5d22" text-anchor="middle">YN</text>
  <!-- Name & title -->
  <text x="150" y="195" font-family="Nunito, Arial, sans-serif" font-weight="800" font-size="16" fill="#221638" text-anchor="middle">Yalezo Ntsikelelo</text>
  <text x="150" y="215" font-family="Nunito, Arial, sans-serif" font-size="11" fill="#ff5d22" text-anchor="middle">Chief Data Scientist</text>
  <!-- Divider -->
  <line x1="60" y1="232" x2="240" y2="232" stroke="#f0f0f0" stroke-width="1.5"/>
  <!-- Skills tags -->
  <rect x="40" y="245" width="65" height="22" rx="11" fill="#fff3ee"/>
  <text x="72" y="260" font-family="Nunito, Arial, sans-serif" font-size="9" fill="#ff5d22" text-anchor="middle" font-weight="700">ML / AI</text>
  <rect x="115" y="245" width="70" height="22" rx="11" fill="#fff3ee"/>
  <text x="150" y="260" font-family="Nunito, Arial, sans-serif" font-size="9" fill="#ff5d22" text-anchor="middle" font-weight="700">TensorFlow</text>
  <rect x="195" y="245" width="65" height="22" rx="11" fill="#fff3ee"/>
  <text x="227" y="260" font-family="Nunito, Arial, sans-serif" font-size="9" fill="#ff5d22" text-anchor="middle" font-weight="700">Spark</text>
  <!-- Location -->
  <text x="150" y="295" font-family="Nunito, Arial, sans-serif" font-size="10" fill="#6b6b84" text-anchor="middle">📍 Cape Town, South Africa</text>
</svg>
